<svg width="18" height="18" fill="none" xmlns="http://www.w3.org/2000/svg"><path d="M6.5 10.668a.833.833 0 11-1.667 0 .833.833 0 011.667 0zm-.833 4.167a.833.833 0 100-1.667.833.833 0 000 1.667zm4.166-4.167a.833.833 0 11-1.666 0 .833.833 0 011.666 0zM9 14.835a.833.833 0 100-1.667.833.833 0 000 1.667zm4.167-4.167a.833.833 0 11-1.667 0 .833.833 0 011.667 0zm-.834 4.167a.833.833 0 100-1.667.833.833 0 000 1.667z" fill="#0081DF"/><path fill-rule="evenodd" clip-rule="evenodd" d="M7.125.668a.625.625 0 10-1.25 0V1.71H4A3.125 3.125 0 00.875 4.835v10c0 1.726 1.4 3.125 3.125 3.125h10c1.726 0 3.125-1.4 3.125-3.125v-10c0-1.726-1.4-3.125-3.125-3.125h-1.875V.668a.625.625 0 10-1.25 0V1.71h-3.75V.668zM4 2.96c-1.036 0-1.875.84-1.875 1.875V6.71h13.75V4.835c0-1.036-.84-1.875-1.875-1.875H4zm-1.875 5h13.75v6.875c0 1.035-.84 1.875-1.875 1.875H4a1.875 1.875 0 01-1.875-1.875V7.96z" fill="#0081DF"/></svg>