<svg width="192" height="40" fill="none" xmlns="http://www.w3.org/2000/svg"><g clip-path="url(#clip0_26_1322)"><path d="M58.383 22.641V8.716h3.066v11.16h6.95v2.765H58.383zm12.467 0V8.716h3.066v13.926H70.85zm16.657-.407c-.989.43-2.121.647-3.395.647-1.088 0-2.082-.18-2.977-.537a6.864 6.864 0 01-2.31-1.492 6.734 6.734 0 01-1.503-2.269c-.359-.875-.538-1.83-.538-2.865v-.04a7.142 7.142 0 012.071-5.081 7.157 7.157 0 012.31-1.552c.889-.379 1.865-.567 2.928-.567.624 0 1.192.043 1.703.129.51.086.986.209 1.424.367.439.16.85.359 1.235.597.385.24.756.51 1.115.816l-1.932 2.328a7.902 7.902 0 00-.797-.597 4.86 4.86 0 00-1.753-.716 5.616 5.616 0 00-1.095-.1c-.558 0-1.08.117-1.564.349a4.23 4.23 0 00-2.131 2.313 4.575 4.575 0 00-.309 1.685v.04c0 .638.103 1.226.309 1.764.206.539.498 1.008.876 1.406a3.99 3.99 0 001.334.928c.511.22 1.08.329 1.703.329 1.142 0 2.104-.28 2.887-.84V17.27h-3.086v-2.645h6.054v6.048c-.717.61-1.57 1.13-2.559 1.561v-.001zm14.229.407v-5.59H96.08v5.59h-3.066V8.716h3.066v5.51h5.656v-5.51h3.066v13.926h-3.066zm12.726-11.101v11.101h-3.066v-11.1h-4.243V8.715h11.551v2.824h-4.242zm15.313 11.101v-5.59h-5.656v5.59h-3.066V8.716h3.066v5.51h5.656v-5.51h3.067v13.926h-3.067zm20.055-4.167a7.208 7.208 0 01-1.544 2.287 7.189 7.189 0 01-2.349 1.552c-.909.378-1.903.567-2.977.567-1.075 0-2.065-.189-2.967-.567a7.373 7.373 0 01-2.34-1.532 6.85 6.85 0 01-1.533-2.268 7.141 7.141 0 01-.548-2.795v-.04c0-.994.186-1.925.558-2.794a7.221 7.221 0 011.543-2.287 7.183 7.183 0 012.35-1.552c.909-.379 1.902-.567 2.976-.567 1.075 0 2.065.188 2.968.567a7.397 7.397 0 012.339 1.531 6.848 6.848 0 011.534 2.269c.365.868.547 1.8.547 2.794v.04a7.02 7.02 0 01-.558 2.795h.001zm-2.649-2.795c0-.597-.104-1.16-.309-1.692a4.22 4.22 0 00-.876-1.393 4.214 4.214 0 00-1.344-.945 4.085 4.085 0 00-1.693-.349c-.612 0-1.192.113-1.703.338-.511.226-.95.537-1.315.935-.364.397-.65.859-.856 1.382a4.553 4.553 0 00-.309 1.681v.04c0 .597.103 1.16.309 1.691.206.53.498.995.876 1.393s.822.713 1.334.946a4.069 4.069 0 001.703.348c.624 0 1.175-.113 1.694-.338a3.871 3.871 0 001.324-.934c.365-.398.649-.86.856-1.383a4.549 4.549 0 00.309-1.68v-.04zm17.436 3.66c-.286.782-.694 1.436-1.225 1.96a4.999 4.999 0 01-1.932 1.174c-.757.259-1.601.388-2.529.388-1.871 0-3.346-.517-4.421-1.552-1.076-1.035-1.614-2.58-1.614-4.636V8.715h3.068v7.878c0 1.14.266 2 .797 2.576.531.577 1.268.866 2.211.866.943 0 1.679-.278 2.21-.836.531-.557.797-1.393.797-2.507V8.714h3.067v7.859c0 1.062-.143 1.982-.428 2.765l-.001.001zm13.256 1.024a3.784 3.784 0 01-1.049 1.353 4.729 4.729 0 01-1.606.835 6.992 6.992 0 01-2.068.29 9.242 9.242 0 01-3.126-.547 8.287 8.287 0 01-2.788-1.681l1.813-2.17a9.101 9.101 0 001.961 1.234 5.25 5.25 0 002.2.457c.637 0 1.132-.116 1.484-.348.352-.233.528-.554.528-.965v-.04c0-.199-.036-.374-.109-.527-.074-.152-.214-.295-.42-.428a4.398 4.398 0 00-.859-.397 15.033 15.033 0 00-1.427-.418 17.636 17.636 0 01-1.918-.576 5.41 5.41 0 01-1.457-.786 3.178 3.178 0 01-.928-1.164c-.22-.464-.33-1.041-.33-1.731v-.04c0-.636.119-1.21.356-1.72.237-.511.571-.953.999-1.324.429-.37.941-.656 1.537-.855a6.166 6.166 0 011.968-.299c1.022 0 1.961.153 2.818.457a8.161 8.161 0 012.36 1.313l-1.593 2.308a10.15 10.15 0 00-1.832-1.005 4.69 4.69 0 00-1.792-.368c-.598 0-1.046.117-1.345.349-.299.232-.448.521-.448.865v.04c0 .226.044.42.13.587.087.166.244.316.47.448.226.133.535.259.928.378.393.12.889.26 1.487.418a14.21 14.21 0 011.888.627c.552.232 1.018.51 1.397.835.379.325.666.707.859 1.144.193.438.291.961.291 1.572v.04c0 .69-.126 1.303-.376 1.84h-.003zm3.044 2.278V8.716h10.495v2.725h-7.468v2.825h6.571v2.725h-6.571v2.925h7.568v2.725h-10.595z" fill="#003764"/><path d="M59.393 32.435v3.778h-.949v-8.395h.949v3.73h4.85v-3.73h.949v8.395h-.949v-3.778h-4.85zm9.261-1.565a5.69 5.69 0 00-.882.33l-.277-.755c.344-.16.693-.286 1.045-.378a4.83 4.83 0 011.212-.137c.848 0 1.5.21 1.957.63.456.42.683 1.041.683 1.865v3.79h-.888v-.936c-.217.28-.507.528-.87.744-.365.216-.824.324-1.375.324-.288 0-.57-.04-.846-.12a2.29 2.29 0 01-.745-.365 1.881 1.881 0 01-.528-.605 1.735 1.735 0 01-.199-.852c0-.328.064-.617.192-.87a1.73 1.73 0 01.547-.63c.235-.168.516-.295.84-.383a4.12 4.12 0 011.075-.132c.393 0 .748.023 1.044.071.296.048.584.112.865.192v-.215c0-.56-.163-.982-.487-1.266-.324-.283-.779-.425-1.362-.425-.368 0-.702.042-1.003.126l.002-.002zm-.296 2.55a1.118 1.118 0 00-.466.947c0 .2.042.376.126.528.083.152.197.28.341.39.143.107.31.19.497.246.187.056.385.084.592.084a2.5 2.5 0 00.807-.126c.252-.084.47-.199.659-.347a1.65 1.65 0 00.442-.528c.108-.203.162-.43.162-.678v-.6a10.04 10.04 0 00-.796-.18 5.647 5.647 0 00-1.024-.084c-.582 0-1.028.116-1.34.347zm10.412-3.407h.911v6.2h-.912v-1.08c-.208.336-.48.621-.816.857-.336.236-.773.354-1.308.354-.377 0-.71-.06-1.003-.18-.292-.12-.54-.29-.745-.51a2.242 2.242 0 01-.468-.785 2.995 2.995 0 01-.162-1.008v-3.85h.924v3.622c0 .576.148 1.032.443 1.368.296.336.72.504 1.273.504.265 0 .51-.046.739-.137a1.66 1.66 0 00.588-.396 1.9 1.9 0 00.39-.617c.096-.24.144-.504.144-.792v-3.55h.001zm7.076 5.247a1.79 1.79 0 01-.468.582c-.197.16-.428.281-.697.366a2.886 2.886 0 01-.87.125c-.449 0-.901-.082-1.357-.246a4.239 4.239 0 01-1.212-.665l.469-.66c.336.256.686.452 1.05.588.364.136.73.203 1.1.203.369 0 .683-.087.923-.264a.845.845 0 00.361-.72v-.023a.64.64 0 00-.126-.395 1.142 1.142 0 00-.342-.295 2.738 2.738 0 00-.499-.221 11.424 11.424 0 00-.582-.18 19.7 19.7 0 01-.727-.234 2.982 2.982 0 01-.66-.318 1.608 1.608 0 01-.48-.48c-.124-.191-.186-.43-.186-.719v-.023c0-.264.052-.505.156-.726.103-.22.25-.408.438-.564.188-.155.412-.276.672-.36.26-.084.543-.126.847-.126.384 0 .772.062 1.164.186.391.123.748.29 1.068.497l-.42.696a4.255 4.255 0 00-.908-.438 2.877 2.877 0 00-.93-.162c-.368 0-.66.087-.876.258a.79.79 0 00-.324.642v.024c0 .144.043.27.132.378.088.107.206.202.354.281.148.08.318.152.51.216s.392.128.6.192c.241.072.479.153.715.24.236.089.45.2.642.336s.346.3.462.491c.116.192.174.428.174.708v.023c0 .297-.058.558-.174.786l.001.001zm6.158.757c-.395.227-.886.34-1.47.34-.457 0-.878-.085-1.266-.257a3.16 3.16 0 01-1.674-1.721 3.264 3.264 0 01-.24-1.248 3.316 3.316 0 01.905-2.29 3.14 3.14 0 011.009-.701c.388-.172.81-.258 1.266-.258.296 0 .564.027.805.084.24.056.46.134.66.233.2.1.384.218.553.354.168.136.324.28.468.432l-.612.648a4.406 4.406 0 00-.811-.66c-.292-.183-.651-.276-1.075-.276a2.09 2.09 0 00-.876.185 2.16 2.16 0 00-.708.515c-.2.22-.356.475-.469.766a2.61 2.61 0 00-.168.939c0 .334.058.65.174.945.116.295.276.552.48.772a2.192 2.192 0 001.626.7c.4 0 .754-.087 1.063-.263a3.59 3.59 0 00.834-.66l.588.552a4.183 4.183 0 01-1.063.87l.001-.001zm3.512.196h-.924v-8.755h.924v3.633a2.93 2.93 0 01.816-.857c.336-.235.773-.354 1.308-.354.376 0 .71.06 1.003.18a2.1 2.1 0 011.213 1.296c.108.303.162.64.162 1.007v3.85h-.924V32.59c0-.576-.148-1.032-.444-1.367-.296-.336-.72-.505-1.272-.505-.265 0-.51.046-.739.138a1.724 1.724 0 00-.984 1.012 2.2 2.2 0 00-.138.792v3.55l-.001.002zm16.291.168l-1.321-1.355a4.45 4.45 0 01-1.248.966 3.26 3.26 0 01-1.5.342c-.377 0-.727-.056-1.051-.168a2.485 2.485 0 01-.841-.48 2.189 2.189 0 01-.553-.749 2.318 2.318 0 01-.198-.966c0-.568.176-1.05.528-1.45.352-.4.852-.728 1.501-.984a4.394 4.394 0 01-.636-.93 2.122 2.122 0 01-.204-.929 1.922 1.922 0 01.613-1.42c.192-.181.424-.323.697-.426a2.55 2.55 0 01.912-.156c.295 0 .568.05.816.15.248.1.462.236.642.409.181.171.323.374.427.605.104.233.156.48.156.744 0 .552-.176 1.001-.528 1.35-.352.347-.837.63-1.452.845l1.92 1.955c.184-.272.361-.564.528-.876.168-.31.329-.643.48-.995l.78.36c-.184.4-.374.776-.569 1.128-.197.352-.41.68-.643.984l1.465 1.498-.72.553-.001-.005zm-4.154-4.258c-.56.208-.969.472-1.225.792-.256.32-.384.66-.384 1.019a1.499 1.499 0 00.487 1.14c.156.143.342.255.558.335a2.252 2.252 0 001.831-.174c.348-.196.674-.461.978-.797l-2.245-2.315zm1.669-3.34a1.169 1.169 0 00-.852-.329c-.385 0-.693.116-.924.348a1.183 1.183 0 00-.348.875c0 .128.014.248.041.36.028.112.074.228.138.348.064.119.15.25.258.39.108.14.242.294.402.461.536-.183.94-.404 1.212-.66.273-.255.409-.57.409-.947 0-.343-.112-.626-.336-.845zm14.903 6.704a4.225 4.225 0 01-1.638.761c-.313.072-.66.108-1.044.108a4.15 4.15 0 01-3.014-1.254 4.197 4.197 0 01-.882-1.372 4.527 4.527 0 01-.318-1.704c0-.607.106-1.163.318-1.691.212-.528.506-.99.882-1.386a4.106 4.106 0 011.345-.936 4.197 4.197 0 011.705-.342c.384 0 .73.032 1.038.096.308.064.594.155.858.27.264.116.508.256.732.42.224.164.439.346.648.545l-.648.696a5.318 5.318 0 00-1.159-.827c-.412-.216-.907-.324-1.483-.324a3.152 3.152 0 00-2.324.996 3.382 3.382 0 00-.684 1.098 3.71 3.71 0 00-.246 1.36c0 .488.082.944.246 1.368.164.425.392.792.684 1.103.292.313.636.558 1.033.738.396.18.826.27 1.291.27.576 0 1.072-.106 1.488-.318.416-.212.824-.51 1.225-.893l.624.612a6.005 6.005 0 01-.678.605l.001.001zm7.898-1.127c-.164.396-.39.742-.679 1.038a3.251 3.251 0 01-2.329.959c-.464 0-.893-.087-1.284-.258a3.233 3.233 0 01-1.02-.696 3.123 3.123 0 01-.672-1.026 3.248 3.248 0 01-.241-1.247 3.3 3.3 0 01.913-2.29 3.189 3.189 0 012.329-.96 3.225 3.225 0 012.317.954c.288.293.512.635.672 1.026.161.392.241.808.241 1.247 0 .44-.083.857-.247 1.254zm-.876-2.18a2.341 2.341 0 00-1.218-1.292 2.177 2.177 0 00-.913-.192c-.327 0-.644.062-.924.185-.28.124-.518.296-.713.515-.197.22-.35.475-.462.766a2.593 2.593 0 00-.169.939c0 .334.058.65.174.945a2.296 2.296 0 001.207 1.28c.279.128.583.19.912.19.329 0 .644-.06.924-.184.279-.124.521-.294.72-.509.2-.215.356-.469.468-.76.113-.29.169-.604.169-.939 0-.335-.058-.65-.174-.945h-.001zm8.093-1.544a2.299 2.299 0 011.068-.659c.219-.064.466-.096.738-.096.72 0 1.284.221 1.693.666.409.444.613 1.053.613 1.829v3.838h-.924v-3.622c0-.6-.142-1.061-.426-1.385-.284-.325-.679-.486-1.182-.486-.233 0-.453.041-.661.125-.208.084-.39.208-.546.372a1.787 1.787 0 00-.372.606c-.092.24-.138.511-.138.815v3.574h-.912v-3.646c0-.583-.142-1.038-.427-1.361-.284-.325-.674-.486-1.171-.486a1.61 1.61 0 00-1.23.552 1.945 1.945 0 00-.366.617 2.232 2.232 0 00-.132.785v3.538h-.924v-6.2h.924v1.043c.103-.151.218-.3.342-.443a2.124 2.124 0 01.966-.635c.2-.064.432-.096.697-.096.504 0 .92.118 1.248.354.329.235.576.53.745.881a3.83 3.83 0 01.378-.48h-.001zm12.13 3.838c-.169.4-.391.738-.667 1.014a2.895 2.895 0 01-.949.635 2.832 2.832 0 01-1.099.222c-.288 0-.552-.036-.792-.108a2.646 2.646 0 01-1.171-.707 3.748 3.748 0 01-.414-.504v3.105h-.924v-8.118h.924v1.247c.128-.184.27-.36.427-.528a2.7 2.7 0 011.164-.737c.236-.076.498-.114.786-.114.368 0 .73.071 1.086.216.357.144.675.354.954.63.28.276.505.614.672 1.014.169.4.252.855.252 1.367s-.084.968-.252 1.368l.003-.002zm-.87-2.345a2.33 2.33 0 00-.474-.758 2.035 2.035 0 00-.696-.483 2.156 2.156 0 00-1.676.005 2.38 2.38 0 00-.72.483c-.212.207-.38.457-.504.751-.124.295-.186.62-.186.979 0 .358.062.686.186.985.123.298.292.55.504.758.213.206.453.367.72.483.268.115.547.172.835.172.288 0 .578-.053.846-.16.268-.108.5-.263.697-.467a2.22 2.22 0 00.468-.751 2.76 2.76 0 00.174-1.008 2.65 2.65 0 00-.174-.99zm4.07-1.259c-.3.085-.595.195-.883.33l-.276-.755c.343-.16.692-.286 1.044-.378a4.832 4.832 0 011.212-.137c.849 0 1.501.21 1.957.63.457.42.684 1.041.684 1.865v3.79h-.889v-.936c-.216.28-.506.528-.87.744-.365.216-.823.324-1.375.324a3.07 3.07 0 01-.846-.12 2.281 2.281 0 01-.744-.365 1.89 1.89 0 01-.529-.605 1.739 1.739 0 01-.198-.852c0-.328.064-.617.192-.87.128-.251.311-.461.546-.63.236-.168.517-.295.841-.383a4.12 4.12 0 011.075-.132c.392 0 .747.023 1.044.071.296.048.584.112.864.192v-.215c0-.56-.162-.982-.486-1.266-.325-.283-.779-.425-1.363-.425-.368 0-.702.042-1.002.126l.002-.002zm-.296 2.55a1.117 1.117 0 00-.466.947c0 .2.041.376.126.528.083.152.197.28.341.39.144.107.309.19.496.246.188.056.385.084.592.084.287 0 .556-.041.808-.126.252-.084.471-.199.658-.347a1.65 1.65 0 00.443-.528c.108-.203.161-.43.161-.678v-.6a9.959 9.959 0 00-.796-.18 5.64 5.64 0 00-1.023-.084c-.583 0-1.03.116-1.34.347zm6.928 2.793h-.924v-6.2h.924v1.08a2.92 2.92 0 01.816-.858c.336-.235.773-.353 1.308-.353.376 0 .711.06 1.003.18.293.12.54.29.745.51.204.219.361.481.468.785.108.303.162.64.162 1.007v3.85h-.924v-3.622c0-.575-.148-1.032-.443-1.367-.297-.336-.721-.505-1.273-.505-.265 0-.51.046-.739.138a1.73 1.73 0 00-.984 1.012 2.2 2.2 0 00-.138.792v3.55h-.001zm9.317.204c-.264.64-.558 1.091-.883 1.354-.324.264-.718.396-1.182.396a2.88 2.88 0 01-.697-.078 3.093 3.093 0 01-.624-.233l.313-.732c.151.08.302.138.45.174.148.036.322.054.522.054.279 0 .516-.084.708-.251.192-.169.38-.472.565-.911l-2.821-6.177h1.02l2.256 5.168 1.993-5.168h.985l-2.605 6.404z" fill="#00A7E1"/><path d="M32.818 14.274l-.005-.188V9.955h.471V8.762h-.663c.002-.021.002-.042.002-.063 0-1.395-1.474-2.548-3.394-2.736l-.659-3-.66 3c-1.918.188-3.395 1.341-3.395 2.736 0 .022 0 .043.002.063h-.663v1.193h.47v4.131l-.004.188h-1.8v.647h12.095v-.647h-1.8.003zm-1.324 0h-5.846v-.597h5.846v.597zm0-1.884h-2.319V11a.604.604 0 00-1.209-.002v1.391h-2.318V9.955h5.846v2.435zm3.124 3.829v-.685H22.523v.685c1.017 0 1.819.867 1.739 1.88l-.905 12.713c2.098.436 4.137.974 6.148 1.507 1.51.4 2.993.792 4.468 1.132L32.88 18.099a1.743 1.743 0 011.738-1.88zm-7.745 1.87h4.963l.004.092.192 2.407-5.159 2.489v-4.988zm2.264 5.104v2.312h-1.133v-2.312h1.133zm3.741 8.064h-6.003v-3.579l5.508-2.657.496 6.236z" fill="#003764"/><path d="M29.136 18.986h-1.131V21.3h1.13v-2.314zm0 9.092h-1.131v2.314h1.13v-2.314z" fill="#003764"/><path d="M47.115 37.35c.907-.381 1.8-.843 2.587-1.389a8.32 8.32 0 01-.644.56c-.65.315-1.306.591-1.943.83z" fill="#FFF100"/><path d="M52.413 33.276c-2.936 2.831-8.1 4.232-10.175 4.514-.979.136-1.922.212-2.834.24a25.97 25.97 0 01-3.428-.11c-7.65-.746-13.378-4.577-21.834-5.19a31.503 31.503 0 00-2.208-.084c-3.43-.011-7.32.53-11.933 1.981 3.905-2.027 7.495-3.123 10.863-3.6.626-.09 1.247-.16 1.858-.206 3.748-.298 7.228.137 10.574.839 3.152.662 6.184 1.559 9.215 2.31 2.58.638 5.161 1.169 7.808 1.356.82.057 1.648.082 2.483.067 3.053-.054 6.224-.647 9.61-2.118l.001.002z" fill="#003764"/><path d="M49.702 35.961a8.3 8.3 0 01-.643.561c-2.565 2.049-6.433 3.08-8.066 3.302a19.006 19.006 0 01-5.215-.008 24.771 24.771 0 01-3.483-.753c-4.089-1.176-7.851-3.163-12.007-4.173 1.639.28 3.169.685 4.648 1.134.032.009.063.02.095.03 1.209.367 2.383.763 3.557 1.145l.036.01c1.736.563 3.471 1.094 5.306 1.448h.002a24.04 24.04 0 003.553.43 23.26 23.26 0 004.14-.199c.973-.133 3.266-.6 5.485-1.536l.007-.002c.907-.381 1.8-.843 2.586-1.389h-.001zM28.57 0C17.224 0 7.99 9.223 7.99 20.56c0 3.498.88 6.795 2.43 9.682a31.375 31.375 0 011.807-.224 18.735 18.735 0 01-2.549-9.458c0-10.408 8.475-18.874 18.893-18.874 10.418 0 18.89 8.466 18.89 18.874 0 5.532-2.396 10.519-6.206 13.975a25.431 25.431 0 002.408-.015 20.47 20.47 0 005.487-13.96C49.15 9.223 39.917 0 28.57 0z" fill="#00A7E1"/></g><defs><clipPath id="clip0_26_1322"><path fill="#fff" d="M0 0h191.511v40H0z"/></clipPath></defs></svg>